<svg id="svg" version="1.1" width="400" height="400" viewBox="0 0 400 400" xmlns="http://www.w3.org/2000/svg" xmlns:xlink="http://www.w3.org/1999/xlink" ><g id="svgg"><path id="path0" d="" stroke="none" fill="#000000" fill-rule="evenodd"></path><path id="path1" d="" stroke="none" fill="#003399" fill-rule="evenodd"></path><path id="path2" d="" stroke="none" fill="#0055ff" fill-rule="evenodd"></path><path id="path3" d="M194.800 37.149 C 194.800 37.341,194.080 37.613,193.200 37.754 C 192.320 37.894,191.600 38.176,191.600 38.379 C 191.600 38.582,190.970 38.976,190.200 39.254 C 189.430 39.533,188.800 39.905,188.800 40.080 C 188.800 40.256,188.558 40.400,188.261 40.400 C 187.965 40.400,187.307 40.760,186.800 41.200 C 186.293 41.640,185.635 42.000,185.339 42.000 C 185.042 42.000,184.800 42.144,184.800 42.320 C 184.800 42.495,184.170 42.867,183.400 43.146 C 182.630 43.424,182.000 43.806,182.000 43.994 C 182.000 44.182,181.475 44.452,180.833 44.593 C 180.192 44.734,179.567 45.108,179.446 45.424 C 179.324 45.741,178.949 46.000,178.613 46.000 C 178.276 46.000,178.000 46.166,178.000 46.368 C 178.000 46.571,177.448 46.858,176.773 47.006 C 176.098 47.154,175.453 47.517,175.340 47.813 C 175.226 48.109,174.608 48.466,173.967 48.607 C 173.325 48.748,172.800 49.029,172.800 49.232 C 172.800 49.434,172.524 49.600,172.187 49.600 C 171.851 49.600,171.476 49.859,171.354 50.176 C 171.233 50.492,170.596 50.869,169.940 51.013 C 169.283 51.157,168.653 51.517,168.540 51.813 C 168.426 52.109,167.808 52.466,167.167 52.607 C 166.525 52.748,166.000 53.029,166.000 53.232 C 166.000 53.434,165.739 53.600,165.420 53.600 C 165.101 53.600,164.696 53.845,164.520 54.143 C 164.344 54.442,163.539 54.902,162.732 55.164 C 161.925 55.426,161.048 55.902,160.783 56.220 C 160.518 56.539,160.054 56.800,159.751 56.800 C 159.448 56.800,159.200 56.980,159.200 57.200 C 159.200 57.420,158.924 57.600,158.587 57.600 C 158.251 57.600,157.879 57.850,157.762 58.155 C 157.645 58.461,156.762 58.931,155.800 59.200 C 154.838 59.469,153.955 59.939,153.838 60.245 C 153.721 60.550,153.349 60.800,153.013 60.800 C 152.676 60.800,152.400 60.966,152.400 61.168 C 152.400 61.371,151.875 61.652,151.233 61.793 C 150.592 61.934,149.974 62.291,149.860 62.587 C 149.747 62.883,149.117 63.243,148.460 63.387 C 147.804 63.531,147.167 63.908,147.046 64.224 C 146.924 64.541,146.549 64.800,146.213 64.800 C 145.876 64.800,145.600 64.966,145.600 65.168 C 145.600 65.371,145.075 65.652,144.433 65.793 C 143.792 65.934,143.174 66.291,143.060 66.587 C 142.947 66.883,142.302 67.246,141.627 67.394 C 140.952 67.542,140.400 67.829,140.400 68.032 C 140.400 68.234,140.124 68.400,139.787 68.400 C 139.451 68.400,139.076 68.659,138.954 68.976 C 138.833 69.292,138.208 69.666,137.567 69.807 C 136.925 69.948,136.400 70.218,136.400 70.406 C 136.400 70.594,135.770 70.976,135.000 71.254 C 134.230 71.533,133.600 71.905,133.600 72.080 C 133.600 72.256,133.358 72.400,133.061 72.400 C 132.765 72.400,132.107 72.760,131.600 73.200 C 131.093 73.640,130.435 74.000,130.139 74.000 C 129.842 74.000,129.600 74.144,129.600 74.320 C 129.600 74.495,128.970 74.867,128.200 75.146 C 127.430 75.424,126.800 75.806,126.800 75.994 C 126.800 76.182,126.260 76.455,125.600 76.600 C 124.940 76.745,124.400 77.029,124.400 77.232 C 124.400 77.434,124.124 77.600,123.787 77.600 C 123.451 77.600,123.079 77.850,122.962 78.155 C 122.845 78.461,121.962 78.931,121.000 79.200 C 120.038 79.469,119.155 79.939,119.038 80.245 C 118.921 80.550,118.549 80.800,118.213 80.800 C 117.876 80.800,117.600 80.980,117.600 81.200 C 117.600 81.420,117.354 81.600,117.054 81.600 C 116.754 81.600,116.079 81.935,115.554 82.345 C 115.029 82.755,114.158 83.228,113.619 83.398 C 113.079 83.567,112.410 83.907,112.133 84.153 C 110.796 85.337,110.394 85.586,109.434 85.827 C 108.865 85.970,108.400 86.203,108.400 86.346 C 108.400 86.488,107.815 86.863,107.100 87.178 C 104.671 88.248,104.379 90.400,106.662 90.400 C 106.958 90.400,107.200 90.537,107.200 90.705 C 107.200 91.012,108.072 91.544,110.100 92.472 C 110.705 92.749,111.200 93.102,111.200 93.256 C 111.200 93.410,111.752 93.658,112.427 93.806 C 113.102 93.954,113.747 94.317,113.860 94.613 C 113.974 94.909,114.592 95.266,115.233 95.407 C 115.875 95.548,116.400 95.824,116.400 96.020 C 116.400 96.216,117.390 96.845,118.600 97.417 C 119.810 97.990,120.800 98.611,120.800 98.797 C 120.800 98.984,121.340 99.255,122.000 99.400 C 122.660 99.545,123.200 99.808,123.200 99.985 C 123.200 100.162,123.515 100.422,123.900 100.563 C 124.285 100.704,125.320 101.266,126.200 101.813 C 127.080 102.360,128.295 103.025,128.900 103.291 C 129.505 103.557,130.000 103.902,130.000 104.056 C 130.000 104.210,130.525 104.452,131.167 104.593 C 131.808 104.734,132.426 105.091,132.540 105.387 C 132.653 105.683,133.283 106.043,133.940 106.187 C 134.596 106.331,135.233 106.708,135.354 107.024 C 135.476 107.341,135.851 107.600,136.187 107.600 C 136.524 107.600,136.800 107.780,136.800 108.000 C 136.800 108.220,137.160 108.400,137.600 108.400 C 138.040 108.400,138.400 108.234,138.400 108.032 C 138.400 107.829,138.940 107.545,139.600 107.400 C 140.260 107.255,140.800 106.999,140.800 106.832 C 140.800 106.664,141.499 106.317,142.353 106.061 C 143.206 105.806,144.128 105.327,144.402 104.998 C 144.675 104.669,145.127 104.400,145.406 104.400 C 145.686 104.400,146.018 104.130,146.145 103.800 C 146.271 103.470,146.651 103.200,146.987 103.200 C 147.324 103.200,147.600 103.034,147.600 102.832 C 147.600 102.629,148.152 102.342,148.827 102.194 C 149.502 102.046,150.145 101.688,150.256 101.398 C 150.367 101.109,150.917 100.757,151.477 100.616 C 152.038 100.476,152.739 100.144,153.034 99.880 C 154.068 98.957,154.655 98.591,157.016 97.400 C 158.323 96.740,159.633 95.975,159.925 95.700 C 160.218 95.425,160.714 95.200,161.029 95.200 C 161.343 95.200,161.600 95.038,161.600 94.839 C 161.600 94.641,162.095 94.273,162.700 94.023 C 164.354 93.339,166.128 92.329,166.725 91.732 C 167.018 91.439,167.514 91.200,167.829 91.200 C 168.143 91.200,168.400 91.059,168.400 90.888 C 168.400 90.716,168.895 90.357,169.500 90.091 C 170.105 89.825,171.320 89.160,172.200 88.613 C 173.080 88.066,174.115 87.504,174.500 87.363 C 174.885 87.222,175.200 86.962,175.200 86.785 C 175.200 86.608,175.752 86.342,176.427 86.194 C 177.102 86.046,177.745 85.688,177.856 85.398 C 177.967 85.109,178.510 84.759,179.063 84.620 C 180.004 84.384,180.417 84.124,181.766 82.920 C 182.061 82.656,182.790 82.317,183.384 82.168 C 183.978 82.019,184.555 81.661,184.666 81.373 C 184.776 81.085,185.392 80.734,186.033 80.593 C 186.675 80.452,187.200 80.171,187.200 79.968 C 187.200 79.766,187.476 79.600,187.813 79.600 C 188.149 79.600,188.524 79.341,188.646 79.024 C 188.767 78.708,189.404 78.331,190.060 78.187 C 190.717 78.043,191.347 77.683,191.460 77.387 C 191.574 77.091,192.192 76.734,192.833 76.593 C 193.475 76.452,194.000 76.171,194.000 75.968 C 194.000 75.766,194.276 75.600,194.613 75.600 C 194.949 75.600,195.324 75.341,195.446 75.024 C 195.567 74.708,196.204 74.331,196.860 74.187 C 197.517 74.043,198.151 73.672,198.270 73.362 C 198.550 72.633,200.250 72.633,200.530 73.362 C 200.649 73.672,201.283 74.043,201.940 74.187 C 202.596 74.331,203.233 74.708,203.354 75.024 C 203.476 75.341,203.851 75.600,204.187 75.600 C 204.524 75.600,204.800 75.766,204.800 75.968 C 204.800 76.171,205.352 76.458,206.027 76.606 C 206.702 76.754,207.347 77.117,207.460 77.413 C 207.574 77.709,208.192 78.066,208.833 78.207 C 209.475 78.348,210.000 78.629,210.000 78.832 C 210.000 79.034,210.276 79.200,210.613 79.200 C 210.949 79.200,211.322 79.454,211.441 79.764 C 211.561 80.074,212.129 80.446,212.705 80.590 C 213.280 80.735,214.240 81.201,214.837 81.627 C 215.435 82.052,216.121 82.400,216.362 82.400 C 216.603 82.400,216.800 82.580,216.800 82.800 C 216.800 83.020,217.057 83.200,217.371 83.200 C 217.686 83.200,218.182 83.439,218.475 83.732 C 219.072 84.329,220.846 85.339,222.500 86.023 C 223.105 86.273,223.600 86.641,223.600 86.839 C 223.600 87.038,223.857 87.200,224.171 87.200 C 224.486 87.200,224.982 87.425,225.275 87.700 C 225.567 87.975,226.879 88.740,228.190 89.400 C 229.500 90.060,230.797 90.780,231.072 91.000 C 231.347 91.220,231.833 91.618,232.152 91.884 C 232.471 92.150,233.197 92.484,233.766 92.627 C 234.335 92.770,234.800 93.036,234.800 93.217 C 234.800 93.399,235.430 93.776,236.200 94.054 C 236.970 94.333,237.600 94.705,237.600 94.880 C 237.600 95.056,237.876 95.200,238.213 95.200 C 238.549 95.200,238.924 95.459,239.046 95.776 C 239.167 96.092,239.792 96.466,240.433 96.607 C 241.075 96.748,241.600 96.996,241.600 97.157 C 241.600 97.319,242.230 97.698,243.000 98.000 C 243.770 98.302,244.400 98.696,244.400 98.875 C 244.400 99.054,244.676 99.200,245.013 99.200 C 245.349 99.200,245.724 99.459,245.846 99.776 C 245.967 100.092,246.592 100.466,247.233 100.607 C 247.875 100.748,248.400 100.996,248.400 101.157 C 248.400 101.319,249.030 101.698,249.800 102.000 C 250.570 102.302,251.200 102.681,251.200 102.843 C 251.200 103.004,251.725 103.252,252.367 103.393 C 253.008 103.534,253.633 103.908,253.754 104.224 C 253.876 104.541,254.251 104.800,254.587 104.800 C 254.924 104.800,255.200 104.952,255.200 105.137 C 255.200 105.322,255.949 105.698,256.864 105.972 C 257.779 106.246,258.763 106.679,259.050 106.935 C 260.454 108.184,260.827 108.400,261.583 108.400 C 262.032 108.400,262.400 108.223,262.400 108.008 C 262.400 107.792,262.850 107.502,263.400 107.364 C 263.950 107.226,264.400 106.992,264.400 106.844 C 264.400 106.696,264.895 106.357,265.500 106.091 C 266.105 105.825,267.320 105.160,268.200 104.613 C 269.080 104.066,270.115 103.504,270.500 103.363 C 270.885 103.222,271.200 102.984,271.200 102.834 C 271.200 102.684,271.830 102.333,272.600 102.054 C 273.370 101.776,274.000 101.394,274.000 101.206 C 274.000 101.018,274.525 100.748,275.167 100.607 C 275.808 100.466,276.433 100.092,276.554 99.776 C 276.676 99.459,277.051 99.200,277.387 99.200 C 277.724 99.200,278.000 99.034,278.000 98.832 C 278.000 98.629,278.552 98.342,279.227 98.194 C 279.902 98.046,280.547 97.683,280.660 97.387 C 280.774 97.091,281.377 96.737,282.000 96.600 C 282.623 96.463,283.233 96.092,283.354 95.776 C 283.476 95.459,283.851 95.200,284.187 95.200 C 284.524 95.200,284.800 95.054,284.800 94.875 C 284.800 94.696,285.430 94.302,286.200 94.000 C 286.970 93.698,287.600 93.319,287.600 93.157 C 287.600 92.996,288.125 92.748,288.767 92.607 C 289.408 92.466,290.033 92.092,290.154 91.776 C 290.276 91.459,290.651 91.200,290.987 91.200 C 291.324 91.200,291.600 91.059,291.600 90.888 C 291.600 90.716,292.155 90.366,292.834 90.110 C 294.488 89.485,294.245 88.430,292.208 87.400 C 291.338 86.960,290.382 86.375,290.084 86.100 C 289.787 85.825,289.286 85.600,288.971 85.600 C 288.657 85.600,288.400 85.440,288.400 85.243 C 288.400 85.047,287.950 84.774,287.400 84.636 C 286.850 84.498,286.400 84.222,286.400 84.023 C 286.400 83.825,285.770 83.454,285.000 83.200 C 284.230 82.946,283.600 82.572,283.600 82.369 C 283.600 82.166,283.343 82.000,283.029 82.000 C 282.714 82.000,282.211 81.754,281.910 81.453 C 281.609 81.152,280.966 80.780,280.481 80.626 C 279.997 80.472,279.600 80.207,279.600 80.037 C 279.600 79.867,278.880 79.490,278.000 79.200 C 277.120 78.910,276.400 78.521,276.400 78.336 C 276.400 78.151,276.158 78.000,275.861 78.000 C 275.565 78.000,274.907 77.640,274.400 77.200 C 273.893 76.760,273.250 76.400,272.972 76.400 C 272.694 76.400,272.407 76.265,272.333 76.100 C 272.260 75.935,271.319 75.356,270.242 74.814 C 269.166 74.272,268.084 73.642,267.839 73.414 C 267.594 73.186,266.321 72.460,265.010 71.800 C 263.700 71.140,262.384 70.375,262.085 70.100 C 261.787 69.825,261.286 69.600,260.971 69.600 C 260.657 69.600,260.400 69.423,260.400 69.208 C 260.400 68.992,259.950 68.702,259.400 68.564 C 258.850 68.426,258.400 68.164,258.400 67.983 C 258.400 67.801,257.770 67.424,257.000 67.146 C 256.230 66.867,255.600 66.515,255.600 66.363 C 255.600 66.211,255.150 65.974,254.600 65.836 C 254.050 65.698,253.600 65.408,253.600 65.192 C 253.600 64.977,253.343 64.800,253.029 64.800 C 252.714 64.800,252.219 64.567,251.929 64.283 C 251.638 63.999,250.815 63.527,250.100 63.235 C 249.385 62.942,248.800 62.564,248.800 62.395 C 248.800 62.225,248.328 61.968,247.752 61.824 C 247.175 61.679,246.461 61.344,246.166 61.080 C 244.811 59.870,244.400 59.615,243.402 59.365 C 242.815 59.218,242.245 58.861,242.134 58.573 C 242.024 58.285,241.408 57.934,240.767 57.793 C 240.125 57.652,239.600 57.371,239.600 57.168 C 239.600 56.966,239.352 56.800,239.049 56.800 C 238.746 56.800,238.282 56.539,238.017 56.220 C 237.752 55.902,236.875 55.426,236.068 55.164 C 235.261 54.902,234.456 54.442,234.280 54.143 C 234.104 53.845,233.699 53.600,233.380 53.600 C 233.061 53.600,232.800 53.420,232.800 53.200 C 232.800 52.980,232.524 52.800,232.187 52.800 C 231.851 52.800,231.479 52.550,231.362 52.245 C 231.245 51.939,230.362 51.469,229.400 51.200 C 228.438 50.931,227.555 50.461,227.438 50.155 C 227.321 49.850,226.949 49.600,226.613 49.600 C 226.276 49.600,226.000 49.434,226.000 49.232 C 226.000 49.029,225.475 48.748,224.833 48.607 C 224.192 48.466,223.574 48.109,223.460 47.813 C 223.347 47.517,222.702 47.154,222.027 47.006 C 221.352 46.858,220.800 46.571,220.800 46.368 C 220.800 46.166,220.524 46.000,220.187 46.000 C 219.851 46.000,219.476 45.741,219.354 45.424 C 219.233 45.108,218.623 44.737,218.000 44.600 C 217.377 44.463,216.776 44.115,216.666 43.827 C 216.555 43.539,215.957 43.176,215.336 43.020 C 214.716 42.864,214.116 42.616,214.004 42.468 C 213.743 42.125,212.481 41.331,211.200 40.705 C 210.650 40.436,210.110 40.123,210.000 40.008 C 209.535 39.524,207.963 38.800,207.377 38.800 C 207.028 38.800,206.473 38.530,206.143 38.200 C 205.813 37.870,205.106 37.600,204.571 37.600 C 204.037 37.600,203.600 37.420,203.600 37.200 C 203.600 36.958,201.867 36.800,199.200 36.800 C 196.780 36.800,194.800 36.957,194.800 37.149 M68.800 110.386 C 68.800 110.599,67.917 110.890,66.838 111.033 C 65.477 111.213,64.490 111.646,63.614 112.446 C 62.919 113.081,62.204 113.600,62.025 113.600 C 61.545 113.600,58.803 116.917,58.801 117.500 C 58.801 117.775,58.640 118.000,58.443 118.000 C 58.247 118.000,57.963 118.493,57.812 119.096 C 57.660 119.699,57.326 120.322,57.068 120.481 C 56.265 120.978,56.198 277.341,57.001 278.144 C 57.337 278.479,57.715 279.274,57.842 279.910 C 57.969 280.547,58.597 281.627,59.237 282.312 C 59.877 282.996,60.400 283.706,60.400 283.889 C 60.400 284.314,61.890 285.600,62.382 285.600 C 62.587 285.600,62.998 285.947,63.295 286.372 C 63.593 286.796,64.323 287.266,64.918 287.415 C 65.513 287.565,66.000 287.809,66.000 287.957 C 66.000 288.106,67.029 288.762,68.286 289.414 C 69.544 290.066,70.772 290.780,71.016 291.000 C 71.259 291.220,72.163 291.760,73.023 292.200 C 73.884 292.640,74.828 293.225,75.122 293.499 C 75.416 293.774,76.093 294.109,76.628 294.243 C 77.163 294.377,77.600 294.647,77.600 294.843 C 77.600 295.040,77.876 295.200,78.213 295.200 C 78.549 295.200,78.924 295.459,79.046 295.776 C 79.167 296.092,79.792 296.466,80.433 296.607 C 81.075 296.748,81.600 296.996,81.600 297.157 C 81.600 297.319,82.230 297.698,83.000 298.000 C 83.770 298.302,84.400 298.681,84.400 298.843 C 84.400 299.004,84.925 299.252,85.567 299.393 C 86.208 299.534,86.833 299.908,86.954 300.224 C 87.076 300.541,87.451 300.800,87.787 300.800 C 88.124 300.800,88.400 300.946,88.400 301.125 C 88.400 301.304,89.030 301.698,89.800 302.000 C 90.570 302.302,91.200 302.681,91.200 302.843 C 91.200 303.004,91.725 303.252,92.367 303.393 C 93.008 303.534,93.633 303.908,93.754 304.224 C 93.876 304.541,94.251 304.800,94.587 304.800 C 94.924 304.800,95.200 304.966,95.200 305.168 C 95.200 305.371,95.752 305.658,96.427 305.806 C 97.102 305.954,97.747 306.317,97.860 306.613 C 97.974 306.909,98.592 307.266,99.233 307.407 C 99.875 307.548,100.400 307.816,100.400 308.002 C 100.400 308.309,101.251 308.832,103.897 310.152 C 104.390 310.399,104.795 310.721,104.797 310.868 C 104.799 311.016,105.340 311.255,106.000 311.400 C 106.660 311.545,107.200 311.816,107.200 312.001 C 107.200 312.187,108.190 312.840,109.400 313.453 C 110.610 314.066,111.600 314.695,111.600 314.852 C 111.600 315.008,112.140 315.255,112.800 315.400 C 113.460 315.545,114.000 315.800,114.000 315.966 C 114.000 316.133,115.035 316.788,116.300 317.423 C 117.565 318.057,118.838 318.806,119.129 319.088 C 119.419 319.370,119.914 319.600,120.229 319.600 C 120.543 319.600,120.800 319.777,120.800 319.992 C 120.800 320.208,121.250 320.498,121.800 320.636 C 122.350 320.774,122.800 321.033,122.800 321.212 C 122.800 321.391,123.430 321.746,124.200 322.000 C 124.970 322.254,125.600 322.609,125.600 322.788 C 125.600 322.967,126.050 323.226,126.600 323.364 C 127.150 323.502,127.600 323.792,127.600 324.008 C 127.600 324.223,127.857 324.400,128.171 324.400 C 128.486 324.400,128.981 324.633,129.271 324.917 C 129.562 325.201,130.385 325.673,131.100 325.965 C 131.815 326.258,132.400 326.636,132.400 326.805 C 132.400 326.975,132.872 327.232,133.448 327.376 C 134.025 327.521,134.739 327.856,135.034 328.120 C 136.389 329.330,136.800 329.585,137.798 329.835 C 138.385 329.982,138.955 330.339,139.066 330.627 C 139.176 330.915,139.792 331.266,140.433 331.407 C 141.075 331.548,141.600 331.829,141.600 332.032 C 141.600 332.234,141.876 332.400,142.213 332.400 C 142.549 332.400,142.921 332.650,143.038 332.955 C 143.155 333.261,144.038 333.731,145.000 334.000 C 145.962 334.269,146.845 334.739,146.962 335.045 C 147.079 335.350,147.451 335.600,147.787 335.600 C 148.124 335.600,148.400 335.780,148.400 336.000 C 148.400 336.220,148.648 336.400,148.951 336.400 C 149.254 336.400,149.725 336.669,149.998 336.998 C 150.272 337.327,151.194 337.806,152.047 338.061 C 152.901 338.317,153.600 338.678,153.600 338.863 C 153.600 339.048,153.876 339.200,154.213 339.200 C 154.549 339.200,154.924 339.459,155.046 339.776 C 155.167 340.092,155.777 340.463,156.400 340.600 C 157.023 340.737,157.626 341.091,157.740 341.387 C 157.853 341.683,158.498 342.046,159.173 342.194 C 159.848 342.342,160.400 342.629,160.400 342.832 C 160.400 343.034,160.676 343.200,161.013 343.200 C 161.349 343.200,161.724 343.459,161.846 343.776 C 161.967 344.092,162.577 344.463,163.200 344.600 C 163.823 344.737,164.424 345.085,164.534 345.373 C 164.645 345.661,165.243 346.024,165.864 346.180 C 166.484 346.336,167.084 346.584,167.196 346.732 C 167.457 347.075,168.719 347.869,170.000 348.495 C 170.550 348.764,171.090 349.078,171.200 349.192 C 171.310 349.307,171.940 349.671,172.600 350.000 C 173.260 350.329,173.890 350.689,174.000 350.799 C 174.405 351.206,175.863 352.029,178.300 353.228 C 179.675 353.904,180.800 354.611,180.800 354.797 C 180.800 354.984,181.340 355.255,182.000 355.400 C 182.660 355.545,183.200 355.824,183.200 356.020 C 183.200 356.216,184.190 356.845,185.400 357.417 C 186.610 357.990,187.600 358.611,187.600 358.797 C 187.600 358.984,188.140 359.255,188.800 359.400 C 189.460 359.545,190.000 359.788,190.000 359.941 C 190.000 360.396,192.465 361.542,194.513 362.038 C 198.866 363.093,208.800 361.691,208.800 360.022 C 208.800 359.825,209.325 359.548,209.967 359.407 C 210.608 359.266,211.226 358.909,211.340 358.613 C 211.453 358.317,212.098 357.954,212.773 357.806 C 213.448 357.658,214.000 357.371,214.000 357.168 C 214.000 356.966,214.230 356.800,214.511 356.800 C 216.509 356.800,216.400 361.118,216.400 282.187 L 216.400 209.183 217.400 208.727 C 217.950 208.477,218.400 208.120,218.400 207.936 C 218.400 207.751,218.657 207.600,218.971 207.600 C 219.286 207.600,219.787 207.356,220.086 207.057 C 220.385 206.758,221.298 206.272,222.115 205.976 C 222.932 205.681,223.600 205.337,223.600 205.211 C 223.600 205.086,224.455 204.537,225.500 203.992 C 226.545 203.446,227.457 202.875,227.526 202.722 C 227.595 202.570,228.270 202.241,229.026 201.991 C 229.782 201.742,230.400 201.391,230.400 201.212 C 230.400 201.033,230.850 200.774,231.400 200.636 C 231.950 200.498,232.400 200.208,232.400 199.992 C 232.400 199.777,232.657 199.600,232.971 199.600 C 233.286 199.600,233.787 199.375,234.085 199.100 C 234.384 198.825,235.656 198.066,236.914 197.414 C 238.171 196.762,239.200 196.106,239.200 195.957 C 239.200 195.809,239.693 195.563,240.296 195.412 C 240.899 195.260,241.484 194.999,241.596 194.830 C 241.832 194.475,243.707 193.436,245.300 192.777 C 245.905 192.527,246.400 192.159,246.400 191.961 C 246.400 191.762,246.657 191.600,246.971 191.600 C 247.286 191.600,247.781 191.373,248.071 191.095 C 248.362 190.818,249.050 190.367,249.600 190.094 C 251.562 189.120,255.003 187.103,255.200 186.812 C 255.310 186.649,256.075 186.296,256.900 186.027 C 257.725 185.758,258.400 185.375,258.400 185.177 C 258.400 184.978,258.850 184.702,259.400 184.564 C 259.950 184.426,260.400 184.153,260.400 183.957 C 260.400 183.760,260.657 183.600,260.971 183.600 C 261.286 183.600,261.799 183.343,262.113 183.030 C 262.427 182.716,263.295 182.180,264.042 181.838 C 265.558 181.144,266.895 180.338,267.204 179.932 C 267.316 179.784,267.901 179.540,268.504 179.388 C 269.107 179.237,269.600 178.990,269.600 178.840 C 269.600 178.690,270.635 178.045,271.900 177.406 C 273.165 176.768,274.438 176.010,274.729 175.723 C 275.019 175.435,275.514 175.200,275.829 175.200 C 276.143 175.200,276.400 175.041,276.400 174.847 C 276.400 174.652,276.715 174.387,277.100 174.258 C 277.485 174.128,278.700 173.480,279.800 172.817 C 280.900 172.155,282.115 171.499,282.500 171.360 C 282.885 171.221,283.200 170.962,283.200 170.785 C 283.200 170.608,283.752 170.342,284.427 170.194 C 285.102 170.046,285.745 169.688,285.856 169.398 C 285.967 169.109,286.517 168.757,287.077 168.616 C 287.638 168.476,288.339 168.144,288.634 167.880 C 289.924 166.729,290.325 166.487,291.691 166.036 C 292.486 165.774,293.352 165.298,293.617 164.980 C 293.882 164.661,294.346 164.400,294.649 164.400 C 294.952 164.400,295.200 164.220,295.200 164.000 C 295.200 163.780,295.476 163.600,295.813 163.600 C 296.149 163.600,296.529 163.330,296.655 163.000 C 296.782 162.670,297.089 162.400,297.337 162.400 C 298.009 162.400,302.000 160.317,302.000 159.966 C 302.000 159.800,302.540 159.545,303.200 159.400 C 303.860 159.255,304.400 158.992,304.400 158.815 C 304.400 158.638,304.715 158.387,305.100 158.258 C 305.485 158.128,306.430 157.655,307.200 157.208 L 308.600 156.393 308.701 209.683 L 308.803 262.972 307.739 263.886 C 307.154 264.389,306.434 264.800,306.138 264.800 C 305.842 264.800,305.600 264.960,305.600 265.157 C 305.600 265.353,305.150 265.626,304.600 265.764 C 304.050 265.902,303.600 266.178,303.600 266.377 C 303.600 266.575,302.930 266.959,302.111 267.229 C 301.292 267.500,300.398 267.919,300.125 268.160 C 298.893 269.250,298.483 269.520,297.669 269.778 C 297.191 269.930,296.800 270.193,296.800 270.363 C 296.800 270.533,296.080 270.910,295.200 271.200 C 294.320 271.490,293.600 271.867,293.600 272.037 C 293.600 272.207,293.203 272.472,292.719 272.626 C 292.234 272.780,291.610 273.107,291.333 273.353 C 290.060 274.480,289.662 274.718,288.277 275.174 C 287.465 275.443,286.800 275.825,286.800 276.023 C 286.800 276.222,286.350 276.498,285.800 276.636 C 285.250 276.774,284.800 277.028,284.800 277.200 C 284.800 277.372,284.350 277.626,283.800 277.764 C 283.250 277.902,282.800 278.178,282.800 278.377 C 282.800 278.575,282.130 278.959,281.311 279.229 C 280.492 279.500,279.598 279.919,279.325 280.160 C 277.992 281.339,277.592 281.587,276.634 281.827 C 276.065 281.970,275.600 282.236,275.600 282.417 C 275.600 282.599,274.970 282.976,274.200 283.254 C 273.430 283.533,272.800 283.905,272.800 284.080 C 272.800 284.256,272.524 284.400,272.187 284.400 C 271.851 284.400,271.476 284.659,271.354 284.976 C 271.233 285.292,270.608 285.666,269.967 285.807 C 269.325 285.948,268.800 286.196,268.800 286.357 C 268.800 286.519,268.170 286.898,267.400 287.200 C 266.630 287.502,266.000 287.896,266.000 288.075 C 266.000 288.254,265.724 288.400,265.387 288.400 C 265.051 288.400,264.676 288.659,264.554 288.976 C 264.433 289.292,263.808 289.666,263.167 289.807 C 262.525 289.948,262.000 290.215,262.000 290.400 C 262.000 290.585,261.448 290.858,260.773 291.006 C 260.098 291.154,259.453 291.517,259.340 291.813 C 259.226 292.109,258.623 292.463,258.000 292.600 C 257.377 292.737,256.767 293.108,256.646 293.424 C 256.524 293.741,256.149 294.000,255.813 294.000 C 255.476 294.000,255.200 294.152,255.200 294.337 C 255.200 294.522,254.451 294.898,253.536 295.172 C 252.621 295.446,251.637 295.879,251.350 296.135 C 250.006 297.331,249.598 297.585,248.634 297.827 L 247.600 298.087 247.600 317.443 L 247.600 336.800 248.613 336.800 C 249.169 336.800,249.724 336.541,249.846 336.224 C 249.967 335.908,250.592 335.534,251.233 335.393 C 251.875 335.252,252.400 335.015,252.400 334.866 C 252.400 334.717,252.985 334.341,253.700 334.030 C 254.415 333.719,255.090 333.356,255.200 333.224 C 255.310 333.092,255.850 332.764,256.400 332.495 C 257.681 331.869,258.943 331.075,259.204 330.732 C 259.316 330.584,259.916 330.336,260.536 330.180 C 261.157 330.024,261.755 329.661,261.866 329.373 C 261.976 329.085,262.592 328.734,263.233 328.593 C 263.875 328.452,264.400 328.171,264.400 327.968 C 264.400 327.766,264.657 327.600,264.971 327.600 C 265.286 327.600,265.781 327.370,266.071 327.088 C 266.362 326.806,267.635 326.057,268.900 325.423 C 270.165 324.788,271.200 324.133,271.200 323.966 C 271.200 323.800,271.740 323.545,272.400 323.400 C 273.060 323.255,273.600 323.008,273.600 322.852 C 273.600 322.695,274.590 322.066,275.800 321.453 C 277.010 320.840,278.000 320.187,278.000 320.001 C 278.000 319.816,278.540 319.545,279.200 319.400 C 279.860 319.255,280.400 318.992,280.400 318.815 C 280.400 318.638,280.715 318.387,281.100 318.258 C 281.485 318.128,282.700 317.480,283.800 316.817 C 284.900 316.155,286.115 315.499,286.500 315.360 C 286.885 315.221,287.200 314.984,287.200 314.834 C 287.200 314.684,287.830 314.333,288.600 314.054 C 289.370 313.776,290.000 313.399,290.000 313.217 C 290.000 313.036,290.472 312.768,291.048 312.624 C 291.625 312.479,292.339 312.144,292.634 311.880 C 293.989 310.670,294.400 310.415,295.398 310.165 C 295.985 310.018,296.555 309.661,296.666 309.373 C 296.776 309.085,297.392 308.734,298.033 308.593 C 298.675 308.452,299.200 308.171,299.200 307.968 C 299.200 307.766,299.461 307.600,299.780 307.600 C 300.099 307.600,300.504 307.355,300.680 307.057 C 300.856 306.758,301.661 306.298,302.468 306.036 C 303.275 305.774,304.152 305.298,304.417 304.980 C 304.682 304.661,305.131 304.400,305.416 304.400 C 305.700 304.400,305.993 304.265,306.067 304.100 C 306.217 303.761,307.625 302.947,310.700 301.420 C 311.855 300.846,312.800 300.216,312.800 300.020 C 312.800 299.824,313.325 299.548,313.967 299.407 C 314.608 299.266,315.226 298.909,315.340 298.613 C 315.453 298.317,316.098 297.954,316.773 297.806 C 317.448 297.658,318.000 297.371,318.000 297.168 C 318.000 296.966,318.276 296.800,318.613 296.800 C 318.949 296.800,319.324 296.541,319.446 296.224 C 319.567 295.908,320.192 295.534,320.833 295.393 C 321.475 295.252,322.000 295.015,322.000 294.866 C 322.000 294.717,322.585 294.341,323.300 294.030 C 324.015 293.719,324.690 293.356,324.800 293.224 C 324.910 293.092,325.450 292.764,326.000 292.495 C 327.281 291.869,328.543 291.075,328.804 290.732 C 328.916 290.584,329.516 290.336,330.136 290.180 C 330.757 290.024,331.355 289.661,331.466 289.373 C 331.576 289.085,332.177 288.737,332.800 288.600 C 333.423 288.463,334.033 288.092,334.154 287.776 C 334.276 287.459,334.589 287.200,334.852 287.200 C 335.621 287.200,340.153 282.361,341.220 280.400 L 342.200 278.600 342.322 201.000 C 342.443 124.504,342.371 119.200,341.215 119.200 C 341.034 119.200,340.776 118.759,340.640 118.219 C 340.397 117.248,335.778 112.400,335.097 112.400 C 334.902 112.400,334.495 112.152,334.191 111.848 C 333.888 111.545,332.821 111.174,331.820 111.024 C 330.819 110.874,330.000 110.582,330.000 110.375 C 330.000 110.167,328.226 110.000,326.000 110.000 C 323.600 110.000,322.000 110.160,322.000 110.400 C 322.000 110.620,321.608 110.800,321.128 110.800 C 320.038 110.800,317.600 111.663,317.600 112.049 C 317.600 112.207,317.075 112.452,316.433 112.593 C 315.792 112.734,315.167 113.108,315.046 113.424 C 314.924 113.741,314.549 114.000,314.213 114.000 C 313.876 114.000,313.600 114.166,313.600 114.368 C 313.600 114.571,313.048 114.858,312.373 115.006 C 311.698 115.154,311.053 115.517,310.940 115.813 C 310.826 116.109,310.208 116.466,309.567 116.607 C 308.925 116.748,308.400 117.029,308.400 117.232 C 308.400 117.434,308.124 117.600,307.787 117.600 C 307.451 117.600,307.076 117.859,306.954 118.176 C 306.833 118.492,306.223 118.863,305.599 119.000 C 304.976 119.137,304.063 119.598,303.572 120.025 C 303.080 120.451,302.435 120.800,302.139 120.800 C 301.842 120.800,301.600 120.977,301.600 121.192 C 301.600 121.408,301.150 121.698,300.600 121.836 C 300.050 121.974,299.600 122.233,299.600 122.412 C 299.600 122.591,298.970 122.946,298.200 123.200 C 297.430 123.454,296.800 123.828,296.800 124.031 C 296.800 124.234,296.543 124.400,296.229 124.400 C 295.914 124.400,295.411 124.646,295.110 124.947 C 294.809 125.248,294.166 125.620,293.681 125.774 C 293.197 125.928,292.800 126.193,292.800 126.363 C 292.800 126.533,292.080 126.910,291.200 127.200 C 290.320 127.490,289.600 127.867,289.600 128.037 C 289.600 128.207,289.203 128.472,288.719 128.626 C 288.234 128.780,287.610 129.107,287.333 129.353 C 286.060 130.480,285.662 130.718,284.277 131.174 C 283.465 131.443,282.800 131.825,282.800 132.023 C 282.800 132.222,282.350 132.498,281.800 132.636 C 281.250 132.774,280.800 133.047,280.800 133.243 C 280.800 133.440,280.558 133.600,280.261 133.600 C 279.965 133.600,279.320 133.949,278.828 134.375 C 278.337 134.802,277.424 135.263,276.801 135.400 C 276.177 135.537,275.567 135.908,275.446 136.224 C 275.324 136.541,274.949 136.800,274.613 136.800 C 274.276 136.800,274.000 136.966,274.000 137.168 C 274.000 137.371,273.475 137.652,272.833 137.793 C 272.192 137.934,271.574 138.291,271.460 138.587 C 271.347 138.883,270.717 139.243,270.060 139.387 C 269.404 139.531,268.767 139.908,268.646 140.224 C 268.524 140.541,268.149 140.800,267.813 140.800 C 267.476 140.800,267.200 140.966,267.200 141.168 C 267.200 141.371,266.675 141.652,266.033 141.793 C 265.392 141.934,264.776 142.285,264.666 142.573 C 264.555 142.861,263.978 143.219,263.384 143.368 C 262.790 143.517,262.061 143.856,261.766 144.120 C 260.417 145.324,260.004 145.584,259.063 145.820 C 258.510 145.959,257.967 146.309,257.856 146.598 C 257.745 146.888,257.102 147.246,256.427 147.394 C 255.752 147.542,255.200 147.829,255.200 148.032 C 255.200 148.234,254.924 148.400,254.587 148.400 C 254.251 148.400,253.876 148.659,253.754 148.976 C 253.633 149.292,253.008 149.666,252.367 149.807 C 251.725 149.948,251.200 150.196,251.200 150.357 C 251.200 150.519,250.570 150.898,249.800 151.200 C 249.030 151.502,248.400 151.896,248.400 152.075 C 248.400 152.254,248.124 152.400,247.787 152.400 C 247.451 152.400,247.076 152.659,246.954 152.976 C 246.833 153.292,246.208 153.666,245.567 153.807 C 244.925 153.948,244.400 154.196,244.400 154.357 C 244.400 154.519,243.770 154.898,243.000 155.200 C 242.230 155.502,241.600 155.881,241.600 156.043 C 241.600 156.204,241.075 156.452,240.433 156.593 C 239.792 156.734,239.167 157.108,239.046 157.424 C 238.924 157.741,238.549 158.000,238.213 158.000 C 237.876 158.000,237.600 158.144,237.600 158.320 C 237.600 158.495,236.970 158.867,236.200 159.146 C 235.430 159.424,234.800 159.801,234.800 159.983 C 234.800 160.164,234.350 160.426,233.800 160.564 C 233.250 160.702,232.800 160.992,232.800 161.208 C 232.800 161.423,232.543 161.600,232.229 161.600 C 231.914 161.600,231.419 161.833,231.129 162.117 C 230.838 162.401,229.970 162.889,229.200 163.200 C 228.430 163.511,227.562 163.999,227.271 164.283 C 226.981 164.567,226.486 164.800,226.171 164.800 C 225.857 164.800,225.600 164.977,225.600 165.192 C 225.600 165.408,225.150 165.698,224.600 165.836 C 224.050 165.974,223.600 166.233,223.600 166.412 C 223.600 166.591,222.970 166.946,222.200 167.200 C 221.430 167.454,220.800 167.828,220.800 168.031 C 220.800 168.234,220.558 168.400,220.261 168.400 C 219.965 168.400,219.307 168.760,218.800 169.200 C 218.293 169.640,217.635 170.000,217.339 170.000 C 217.042 170.000,216.800 170.144,216.800 170.320 C 216.800 170.495,216.170 170.867,215.400 171.146 C 214.630 171.424,214.000 171.801,214.000 171.983 C 214.000 172.164,213.528 172.432,212.952 172.576 C 212.375 172.721,211.661 173.056,211.366 173.320 C 210.011 174.530,209.600 174.785,208.602 175.035 C 208.015 175.182,207.445 175.539,207.334 175.827 C 207.224 176.115,206.623 176.463,206.000 176.600 C 205.377 176.737,204.767 177.108,204.646 177.424 C 204.524 177.741,204.149 178.000,203.813 178.000 C 203.476 178.000,203.200 178.166,203.200 178.368 C 203.200 178.571,202.648 178.858,201.973 179.006 C 201.298 179.154,200.649 179.528,200.530 179.838 C 200.297 180.446,199.200 180.623,199.200 180.052 C 199.200 179.861,198.402 179.480,197.426 179.207 C 196.450 178.934,195.555 178.461,195.438 178.155 C 195.321 177.850,194.949 177.600,194.613 177.600 C 194.276 177.600,194.000 177.434,194.000 177.232 C 194.000 177.029,193.475 176.748,192.833 176.607 C 192.192 176.466,191.574 176.109,191.460 175.813 C 191.347 175.517,190.717 175.157,190.060 175.013 C 189.404 174.869,188.767 174.492,188.646 174.176 C 188.524 173.859,188.149 173.600,187.813 173.600 C 187.476 173.600,187.200 173.434,187.200 173.232 C 187.200 173.029,186.675 172.748,186.033 172.607 C 185.392 172.466,184.774 172.109,184.660 171.813 C 184.547 171.517,183.902 171.154,183.227 171.006 C 182.552 170.858,182.000 170.571,182.000 170.368 C 182.000 170.166,181.724 170.000,181.387 170.000 C 181.051 170.000,180.676 169.741,180.554 169.424 C 180.433 169.108,179.808 168.734,179.167 168.593 C 178.525 168.452,178.000 168.182,178.000 167.994 C 178.000 167.806,177.370 167.424,176.600 167.146 C 175.830 166.867,175.200 166.495,175.200 166.320 C 175.200 166.144,174.924 166.000,174.587 166.000 C 174.251 166.000,173.876 165.741,173.754 165.424 C 173.633 165.108,173.008 164.734,172.367 164.593 C 171.725 164.452,171.200 164.204,171.200 164.043 C 171.200 163.881,170.570 163.502,169.800 163.200 C 169.030 162.898,168.400 162.519,168.400 162.357 C 168.400 162.196,167.875 161.948,167.233 161.807 C 166.592 161.666,165.967 161.292,165.846 160.976 C 165.724 160.659,165.364 160.400,165.046 160.400 C 164.727 160.400,164.407 160.265,164.333 160.100 C 164.260 159.935,163.319 159.356,162.242 158.814 C 161.166 158.272,160.084 157.642,159.839 157.414 C 159.594 157.186,158.321 156.460,157.010 155.800 C 155.700 155.140,154.384 154.375,154.085 154.100 C 153.787 153.825,153.286 153.600,152.971 153.600 C 152.657 153.600,152.400 153.423,152.400 153.208 C 152.400 152.992,151.950 152.702,151.400 152.564 C 150.850 152.426,150.400 152.164,150.400 151.983 C 150.400 151.801,149.770 151.424,149.000 151.146 C 148.230 150.867,147.600 150.495,147.600 150.320 C 147.600 150.144,147.358 150.000,147.061 150.000 C 146.765 150.000,146.107 149.640,145.600 149.200 C 145.093 148.760,144.435 148.400,144.139 148.400 C 143.842 148.400,143.600 148.256,143.600 148.080 C 143.600 147.905,142.970 147.533,142.200 147.254 C 141.430 146.976,140.800 146.599,140.800 146.417 C 140.800 146.236,140.328 145.968,139.752 145.824 C 139.175 145.679,138.461 145.344,138.166 145.080 C 136.811 143.870,136.400 143.615,135.402 143.365 C 134.815 143.218,134.245 142.861,134.134 142.573 C 134.024 142.285,133.423 141.937,132.800 141.800 C 132.177 141.663,131.567 141.292,131.446 140.976 C 131.324 140.659,130.949 140.400,130.613 140.400 C 130.276 140.400,130.000 140.234,130.000 140.032 C 130.000 139.829,129.448 139.542,128.773 139.394 C 128.098 139.246,127.453 138.883,127.340 138.587 C 127.226 138.291,126.608 137.934,125.967 137.793 C 125.325 137.652,124.800 137.371,124.800 137.168 C 124.800 136.966,124.524 136.800,124.187 136.800 C 123.851 136.800,123.476 136.541,123.354 136.224 C 123.233 135.908,122.596 135.531,121.940 135.387 C 121.283 135.243,120.653 134.883,120.540 134.587 C 120.426 134.291,119.808 133.934,119.167 133.793 C 118.525 133.652,118.000 133.371,118.000 133.168 C 118.000 132.966,117.752 132.800,117.449 132.800 C 117.146 132.800,116.682 132.539,116.417 132.220 C 116.152 131.902,115.275 131.426,114.468 131.164 C 113.661 130.902,112.856 130.442,112.680 130.143 C 112.504 129.845,112.099 129.600,111.780 129.600 C 111.461 129.600,111.200 129.420,111.200 129.200 C 111.200 128.980,110.954 128.800,110.654 128.800 C 110.354 128.800,109.664 128.451,109.122 128.025 C 108.580 127.598,107.669 127.132,107.097 126.989 C 106.526 126.845,105.961 126.474,105.841 126.164 C 105.722 125.854,105.349 125.600,105.013 125.600 C 104.676 125.600,104.400 125.434,104.400 125.232 C 104.400 125.029,103.875 124.748,103.233 124.607 C 102.592 124.466,101.974 124.109,101.860 123.813 C 101.747 123.517,101.102 123.154,100.427 123.006 C 99.752 122.858,99.200 122.571,99.200 122.368 C 99.200 122.166,98.924 122.000,98.587 122.000 C 98.251 122.000,97.876 121.741,97.754 121.424 C 97.633 121.108,97.008 120.734,96.367 120.593 C 95.725 120.452,95.200 120.193,95.200 120.017 C 95.200 119.841,94.615 119.458,93.900 119.165 C 93.185 118.873,92.362 118.401,92.071 118.117 C 91.781 117.833,91.286 117.600,90.971 117.600 C 90.657 117.600,90.400 117.432,90.400 117.227 C 90.400 117.022,89.995 116.728,89.500 116.573 C 89.005 116.419,88.510 116.169,88.400 116.019 C 88.290 115.868,87.339 115.333,86.286 114.830 C 85.234 114.327,84.154 113.709,83.886 113.456 C 82.933 112.557,78.970 110.800,77.894 110.800 C 77.292 110.800,76.800 110.620,76.800 110.400 C 76.800 110.160,75.200 110.000,72.800 110.000 C 70.495 110.000,68.800 110.164,68.800 110.386 M92.477 157.500 C 93.620 158.105,94.803 158.825,95.106 159.100 C 95.409 159.375,95.914 159.600,96.229 159.600 C 96.543 159.600,96.800 159.777,96.800 159.992 C 96.800 160.208,97.250 160.498,97.800 160.636 C 98.350 160.774,98.800 161.033,98.800 161.212 C 98.800 161.391,99.430 161.746,100.200 162.000 C 100.970 162.254,101.600 162.628,101.600 162.831 C 101.600 163.034,101.842 163.200,102.139 163.200 C 102.435 163.200,103.093 163.560,103.600 164.000 C 104.107 164.440,104.765 164.800,105.061 164.800 C 105.358 164.800,105.600 164.944,105.600 165.120 C 105.600 165.295,106.230 165.667,107.000 165.946 C 107.770 166.224,108.400 166.606,108.400 166.794 C 108.400 166.982,108.940 167.255,109.600 167.400 C 110.260 167.545,110.800 167.800,110.800 167.966 C 110.800 168.133,111.835 168.788,113.100 169.423 C 114.365 170.057,115.638 170.806,115.929 171.088 C 116.219 171.370,116.714 171.600,117.029 171.600 C 117.343 171.600,117.600 171.780,117.600 172.000 C 117.600 172.220,117.846 172.400,118.146 172.400 C 118.446 172.400,119.121 172.735,119.646 173.145 C 120.171 173.555,121.042 174.028,121.581 174.198 C 122.121 174.367,122.790 174.707,123.067 174.953 C 124.401 176.134,124.804 176.386,125.737 176.620 C 126.290 176.759,126.833 177.109,126.944 177.398 C 127.055 177.688,127.698 178.046,128.373 178.194 C 129.048 178.342,129.600 178.629,129.600 178.832 C 129.600 179.034,129.842 179.200,130.139 179.200 C 130.435 179.200,131.093 179.560,131.600 180.000 C 132.107 180.440,132.765 180.800,133.061 180.800 C 133.358 180.800,133.600 180.946,133.600 181.125 C 133.600 181.304,134.230 181.698,135.000 182.000 C 135.770 182.302,136.400 182.681,136.400 182.843 C 136.400 183.004,136.925 183.252,137.567 183.393 C 138.208 183.534,138.833 183.908,138.954 184.224 C 139.076 184.541,139.451 184.800,139.787 184.800 C 140.124 184.800,140.400 184.966,140.400 185.168 C 140.400 185.371,140.952 185.658,141.627 185.806 C 142.302 185.954,142.947 186.317,143.060 186.613 C 143.174 186.909,143.777 187.263,144.400 187.400 C 145.023 187.537,145.633 187.908,145.754 188.224 C 145.876 188.541,146.251 188.800,146.587 188.800 C 146.924 188.800,147.200 188.957,147.200 189.148 C 147.200 189.339,147.998 189.720,148.974 189.993 C 149.950 190.266,150.845 190.739,150.962 191.045 C 151.079 191.350,151.451 191.600,151.787 191.600 C 152.124 191.600,152.400 191.780,152.400 192.000 C 152.400 192.220,152.648 192.400,152.951 192.400 C 153.254 192.400,153.718 192.661,153.983 192.980 C 154.248 193.298,155.125 193.774,155.932 194.036 C 156.739 194.298,157.544 194.758,157.720 195.057 C 157.896 195.355,158.301 195.600,158.620 195.600 C 158.939 195.600,159.200 195.766,159.200 195.968 C 159.200 196.171,159.725 196.452,160.367 196.593 C 161.008 196.734,161.626 197.091,161.740 197.387 C 161.853 197.683,162.483 198.043,163.140 198.187 C 163.796 198.331,164.433 198.708,164.554 199.024 C 164.676 199.341,165.051 199.600,165.387 199.600 C 165.724 199.600,166.000 199.766,166.000 199.968 C 166.000 200.171,166.525 200.452,167.167 200.593 C 167.808 200.734,168.424 201.085,168.534 201.373 C 168.645 201.661,169.243 202.024,169.864 202.180 C 170.484 202.336,171.084 202.584,171.196 202.732 C 171.457 203.075,172.719 203.869,174.000 204.495 C 174.550 204.764,175.090 205.092,175.200 205.224 C 175.310 205.356,175.985 205.719,176.700 206.030 C 177.415 206.341,178.000 206.717,178.000 206.866 C 178.000 207.015,178.525 207.252,179.167 207.393 C 179.808 207.534,180.433 207.908,180.554 208.224 C 180.676 208.541,181.029 208.800,181.338 208.800 C 182.808 208.800,182.805 208.699,182.701 263.379 L 182.600 316.872 181.568 316.061 C 181.001 315.615,180.069 315.132,179.497 314.989 C 178.926 314.845,178.361 314.474,178.241 314.164 C 178.122 313.854,177.749 313.600,177.413 313.600 C 177.076 313.600,176.800 313.434,176.800 313.232 C 176.800 313.029,176.275 312.748,175.633 312.607 C 174.992 312.466,174.376 312.115,174.266 311.827 C 174.155 311.539,173.557 311.176,172.936 311.020 C 172.316 310.864,171.716 310.616,171.604 310.468 C 171.343 310.125,170.081 309.331,168.800 308.705 C 168.250 308.436,167.710 308.108,167.600 307.976 C 167.490 307.844,166.815 307.481,166.100 307.170 C 165.385 306.859,164.800 306.488,164.800 306.346 C 164.800 306.203,164.328 305.968,163.752 305.824 C 163.175 305.679,162.461 305.344,162.166 305.080 C 160.811 303.870,160.400 303.615,159.402 303.365 C 158.815 303.218,158.245 302.861,158.134 302.573 C 158.024 302.285,157.408 301.934,156.767 301.793 C 156.125 301.652,155.600 301.371,155.600 301.168 C 155.600 300.966,155.324 300.800,154.987 300.800 C 154.651 300.800,154.279 300.550,154.162 300.245 C 154.045 299.939,153.162 299.469,152.200 299.200 C 151.238 298.931,150.355 298.461,150.238 298.155 C 150.121 297.850,149.749 297.600,149.413 297.600 C 149.076 297.600,148.800 297.434,148.800 297.232 C 148.800 297.029,148.275 296.748,147.633 296.607 C 146.992 296.466,146.374 296.109,146.260 295.813 C 146.147 295.517,145.502 295.154,144.827 295.006 C 144.152 294.858,143.600 294.571,143.600 294.368 C 143.600 294.166,143.324 294.000,142.987 294.000 C 142.651 294.000,142.276 293.741,142.154 293.424 C 142.033 293.108,141.423 292.737,140.800 292.600 C 140.177 292.463,139.574 292.109,139.460 291.813 C 139.347 291.517,138.702 291.154,138.027 291.006 C 137.352 290.858,136.800 290.571,136.800 290.368 C 136.800 290.166,136.524 290.000,136.187 290.000 C 135.851 290.000,135.476 289.741,135.354 289.424 C 135.233 289.108,134.608 288.734,133.967 288.593 C 133.325 288.452,132.800 288.204,132.800 288.043 C 132.800 287.881,132.170 287.502,131.400 287.200 C 130.630 286.898,130.000 286.519,130.000 286.357 C 130.000 286.196,129.475 285.948,128.833 285.807 C 128.192 285.666,127.567 285.292,127.446 284.976 C 127.324 284.659,126.949 284.400,126.613 284.400 C 126.276 284.400,126.000 284.254,126.000 284.075 C 126.000 283.896,125.370 283.502,124.600 283.200 C 123.830 282.898,123.200 282.519,123.200 282.357 C 123.200 282.196,122.675 281.948,122.033 281.807 C 121.392 281.666,120.767 281.292,120.646 280.976 C 120.524 280.659,120.149 280.400,119.813 280.400 C 119.476 280.400,119.200 280.234,119.200 280.032 C 119.200 279.829,118.648 279.542,117.973 279.394 C 117.298 279.246,116.655 278.888,116.544 278.598 C 116.433 278.309,115.890 277.959,115.337 277.820 C 114.406 277.586,114.005 277.337,112.675 276.160 C 112.402 275.919,111.463 275.488,110.589 275.204 C 109.715 274.919,108.856 274.442,108.680 274.143 C 108.504 273.845,108.099 273.600,107.780 273.600 C 107.461 273.600,107.200 273.420,107.200 273.200 C 107.200 272.980,106.952 272.800,106.649 272.800 C 106.346 272.800,105.882 272.539,105.617 272.220 C 105.352 271.902,104.475 271.426,103.668 271.164 C 102.861 270.902,102.056 270.442,101.880 270.143 C 101.704 269.845,101.299 269.600,100.980 269.600 C 100.661 269.600,100.400 269.440,100.400 269.243 C 100.400 269.047,99.950 268.774,99.400 268.636 C 98.850 268.498,98.400 268.222,98.400 268.023 C 98.400 267.825,97.735 267.443,96.923 267.174 C 95.538 266.718,95.140 266.480,93.867 265.353 C 93.590 265.107,92.947 264.774,92.439 264.612 C 89.771 263.766,90.000 268.911,90.000 209.711 C 90.000 180.390,90.090 156.400,90.200 156.400 C 90.310 156.400,91.335 156.895,92.477 157.500 " stroke="none" fill="#488bd8" fill-rule="evenodd"></path><path id="path4" d="" stroke="none" fill="#00ffff" fill-rule="evenodd"></path></g></svg>